<?xml version="1.0" encoding="utf-8"?>
<!-- Generator: Adobe Illustrator 16.0.0, SVG Export Plug-In . SVG Version: 6.00 Build 0)  -->
<!DOCTYPE svg PUBLIC "-//W3C//DTD SVG 1.1//EN" "http://www.w3.org/Graphics/SVG/1.1/DTD/svg11.dtd">
<svg version="1.1" id="Layer_1" xmlns="http://www.w3.org/2000/svg" xmlns:xlink="http://www.w3.org/1999/xlink" x="0px" y="0px"
	 width="30px" height="31px" viewBox="0 0 30 31" enable-background="new 0 0 30 31" xml:space="preserve">
<g>
	<polygon fill="none" points="15.043,0 0,0 0,15 0.043,15 	"/>
	<polygon fill="none" points="16.707,31 30,31 30,16 1.707,16 	"/>
	<polygon fill="none" points="0.292,16 0,16 0,31 15.292,31 	"/>
	<polygon fill="none" points="30,15 30,0 16.457,0 1.457,15 	"/>
	<polygon fill="#FFFFFF" points="0,15.708 0,16 0.292,16 	"/>
	<polygon fill="#FFFFFF" points="0,15.043 0,15.707 0.332,15.375 	"/>
	<polygon fill="#FFFFFF" points="0,15 0,15.043 0.043,15 	"/>
	<polygon fill="#FFFFFF" points="1.082,15.375 1.707,16 30,16 30,15 1.457,15 	"/>
	<polygon fill="#FFFFFF" points="0.707,15 1.082,15.375 1.457,15 16.457,0 15.043,0 0.043,15 0,15.043 0.332,15.375 	"/>
	<polygon fill="#FFFFFF" points="15.292,31 16.707,31 1.707,16 1.082,15.375 0.707,15 0.332,15.375 0,15.707 0,15.708 0.292,16 	"/>
</g>
</svg>
