<?xml version="1.0" encoding="utf-8"?>
<!-- Generator: Adobe Illustrator 16.0.0, SVG Export Plug-In . SVG Version: 6.00 Build 0)  -->
<!DOCTYPE svg PUBLIC "-//W3C//DTD SVG 1.1//EN" "http://www.w3.org/Graphics/SVG/1.1/DTD/svg11.dtd">
<svg version="1.1" id="Layer_1" xmlns="http://www.w3.org/2000/svg" xmlns:xlink="http://www.w3.org/1999/xlink" x="0px" y="0px"
	 width="30px" height="31px" viewBox="0 0 30 31" enable-background="new 0 0 30 31" xml:space="preserve">
<g>
	<polygon fill="none" points="29.957,15 30,15 30,0 14.957,0 	"/>
	<polygon fill="none" points="28.293,16 0,16 0,31 13.293,31 	"/>
	<polygon fill="none" points="14.708,31 30,31 30,16 29.708,16 	"/>
	<polygon fill="none" points="28.543,15 13.543,0 0,0 0,15 	"/>
	<polygon fill="#FFFFFF" points="29.708,16 30,16 30,15.708 	"/>
	<polygon fill="#FFFFFF" points="29.668,15.375 30,15.707 30,15.043 	"/>
	<polygon fill="#FFFFFF" points="29.957,15 30,15.043 30,15 	"/>
	<polygon fill="#FFFFFF" points="28.543,15 0,15 0,16 28.293,16 28.918,15.375 	"/>
	<polygon fill="#FFFFFF" points="29.668,15.375 30,15.043 29.957,15 14.957,0 13.543,0 28.543,15 28.918,15.375 29.293,15 	"/>
	<polygon fill="#FFFFFF" points="29.708,16 30,15.708 30,15.707 29.668,15.375 29.293,15 28.918,15.375 28.293,16 13.293,31 
		14.708,31 	"/>
</g>
</svg>
