<?xml version="1.0" encoding="utf-8"?>
<!-- Generator: Adobe Illustrator 19.1.0, SVG Export Plug-In . SVG Version: 6.00 Build 0)  -->
<!DOCTYPE svg PUBLIC "-//W3C//DTD SVG 1.1//EN" "http://www.w3.org/Graphics/SVG/1.1/DTD/svg11.dtd">
<svg version="1.1" id="Layer_1" xmlns="http://www.w3.org/2000/svg" xmlns:xlink="http://www.w3.org/1999/xlink" x="0px" y="0px" width="200px" height="261px"
	 viewBox="240 -160 62 62" enable-background="new 240 -160 62 62" xml:space="preserve">
<g>
	<path fill="#530B61" d="M300-113h-38v-16c0-1.1-0.9-2-2-2h-12c-1.1,0-2,0.9-2,2v16h-4v-38h30v22c0,1.1,0.9,2,2,2h20
		c1.1,0,2-0.9,2-2v-22h4V-113z M248-107v-22h12v17v5H248z M294-157v5v23h-20v-23v-5H294z M301-153h-5v-4c0-1.1-0.9-2-2-2h-20
		c-1.1,0-2,0.9-2,2v4h-31c-0.6,0-1,0.4-1,1v40c0,0.6,0.4,1,1,1h5v4c0,1.1,0.9,2,2,2h12c1.1,0,2-0.9,2-2v-4h39c0.6,0,1-0.4,1-1v-40
		C302-152.6,301.6-153,301-153z"/>
	<path fill="#530B61" d="M268-101v-2h6v2H268z M281-101h-5v-3c0-0.6-0.4-1-1-1h-8c-0.6,0-1,0.4-1,1v3h-5c-0.6,0-1,0.4-1,1s0.4,1,1,1
		h6h8h6c0.6,0,1-0.4,1-1S281.6-101,281-101z"/>
	<path fill="#530B61" d="M283-133h2c0.6,0,1-0.4,1-1s-0.4-1-1-1h-2c-0.6,0-1,0.4-1,1S282.4-133,283-133z"/>
	<path fill="#530B61" d="M255-113h-2c-0.6,0-1,0.4-1,1s0.4,1,1,1h2c0.6,0,1-0.4,1-1S255.6-113,255-113z"/>
</g>
</svg>
